<mxfile host="app.diagrams.net" agent="Mozilla/5.0 (X11; Linux x86_64) AppleWebKit/537.36 (KHTML, like Gecko) Chrome/135.0.0.0 Safari/537.36" version="26.2.14">
  <diagram name="Page-1" id="AUcUCUH7B417ExaHzmdE">
    <mxGraphModel dx="1426" dy="1125" grid="1" gridSize="10" guides="1" tooltips="1" connect="1" arrows="1" fold="1" page="1" pageScale="1" pageWidth="850" pageHeight="1100" math="0" shadow="0">
      <root>
        <mxCell id="0" />
        <mxCell id="1" parent="0" />
        <mxCell id="cEZMXlOsg1kdJWBOgrgs-2" value="&lt;span style=&quot;font-size: 8px;&quot;&gt;Εμφάνιση Λεπτομερειών activity&lt;/span&gt;" style="ellipse;shape=umlControl;whiteSpace=wrap;html=1;rounded=1;" vertex="1" parent="1">
          <mxGeometry x="565" y="170" width="70" height="80" as="geometry" />
        </mxCell>
        <mxCell id="cEZMXlOsg1kdJWBOgrgs-3" value="&lt;font style=&quot;font-size: 9px;&quot;&gt;Στοιχεία&lt;/font&gt;&lt;div&gt;&lt;font style=&quot;font-size: 9px;&quot;&gt;&amp;nbsp;εν&#39; λόγω Activity&lt;/font&gt;&lt;/div&gt;" style="ellipse;shape=umlEntity;whiteSpace=wrap;html=1;rounded=1;" vertex="1" parent="1">
          <mxGeometry x="560" y="40" width="80" height="80" as="geometry" />
        </mxCell>
        <mxCell id="cEZMXlOsg1kdJWBOgrgs-4" value="" style="endArrow=none;html=1;rounded=1;" edge="1" parent="1">
          <mxGeometry width="50" height="50" relative="1" as="geometry">
            <mxPoint x="599.71" y="180" as="sourcePoint" />
            <mxPoint x="599.71" y="120" as="targetPoint" />
          </mxGeometry>
        </mxCell>
        <mxCell id="cEZMXlOsg1kdJWBOgrgs-5" value="" style="endArrow=classic;html=1;rounded=1;" edge="1" parent="1">
          <mxGeometry width="50" height="50" relative="1" as="geometry">
            <mxPoint x="90" y="240" as="sourcePoint" />
            <mxPoint x="280" y="240" as="targetPoint" />
          </mxGeometry>
        </mxCell>
        <mxCell id="cEZMXlOsg1kdJWBOgrgs-7" value="" style="endArrow=classic;html=1;rounded=0;curved=1;" edge="1" parent="1">
          <mxGeometry width="50" height="50" relative="1" as="geometry">
            <mxPoint x="560" y="240" as="sourcePoint" />
            <mxPoint x="390" y="320" as="targetPoint" />
            <Array as="points">
              <mxPoint x="420" y="280" />
            </Array>
          </mxGeometry>
        </mxCell>
        <mxCell id="cEZMXlOsg1kdJWBOgrgs-13" value="&lt;font style=&quot;font-size: 9px;&quot;&gt;Στοιχεία&lt;/font&gt;&lt;div&gt;&lt;font style=&quot;font-size: 9px;&quot;&gt;&amp;nbsp;εν&#39; λόγω Activity&lt;/font&gt;&lt;/div&gt;" style="ellipse;shape=umlEntity;whiteSpace=wrap;html=1;rounded=1;" vertex="1" parent="1">
          <mxGeometry x="710" y="595" width="80" height="80" as="geometry" />
        </mxCell>
        <mxCell id="cEZMXlOsg1kdJWBOgrgs-15" value="&lt;font style=&quot;font-size: 10px;&quot;&gt;Ενημέρωση επιτυχούς τροποποίησης&lt;/font&gt;" style="shape=umlBoundary;whiteSpace=wrap;html=1;rounded=1;" vertex="1" parent="1">
          <mxGeometry x="510" y="755" width="100" height="80" as="geometry" />
        </mxCell>
        <mxCell id="cEZMXlOsg1kdJWBOgrgs-18" value="&lt;div&gt;&lt;span style=&quot;font-size: 10px;&quot;&gt;Αίτηση Διόρθωσης&lt;/span&gt;&lt;/div&gt;" style="shape=umlBoundary;whiteSpace=wrap;html=1;rounded=1;" vertex="1" parent="1">
          <mxGeometry x="660" y="320" width="90" height="70" as="geometry" />
        </mxCell>
        <mxCell id="cEZMXlOsg1kdJWBOgrgs-23" value="&lt;font size=&quot;1&quot;&gt;Διαγραφή Activity και Ενημέρωση Χρήστη&lt;/font&gt;" style="ellipse;shape=umlControl;whiteSpace=wrap;html=1;rounded=1;" vertex="1" parent="1">
          <mxGeometry x="297.5" y="700" width="102.5" height="80" as="geometry" />
        </mxCell>
        <mxCell id="cEZMXlOsg1kdJWBOgrgs-25" value="&lt;div&gt;&lt;font style=&quot;font-size: 10px;&quot;&gt;Activities&lt;/font&gt;&lt;/div&gt;&lt;div&gt;&lt;font style=&quot;font-size: 10px;&quot;&gt;χρήστη&amp;nbsp;&lt;/font&gt;&lt;/div&gt;" style="ellipse;shape=umlEntity;whiteSpace=wrap;html=1;rounded=1;" vertex="1" parent="1">
          <mxGeometry x="308.75" y="835" width="80" height="80" as="geometry" />
        </mxCell>
        <mxCell id="cEZMXlOsg1kdJWBOgrgs-26" value="" style="endArrow=none;html=1;rounded=1;exitX=0.5;exitY=0;exitDx=0;exitDy=0;" edge="1" parent="1" source="cEZMXlOsg1kdJWBOgrgs-25">
          <mxGeometry width="50" height="50" relative="1" as="geometry">
            <mxPoint x="348.46000000000004" y="830" as="sourcePoint" />
            <mxPoint x="348.46000000000004" y="780" as="targetPoint" />
          </mxGeometry>
        </mxCell>
        <mxCell id="cEZMXlOsg1kdJWBOgrgs-28" value="&lt;font style=&quot;font-size: 10px;&quot;&gt;Ενημέρωση επιτυχούς διαγραφής&lt;/font&gt;" style="shape=umlBoundary;whiteSpace=wrap;html=1;rounded=1;" vertex="1" parent="1">
          <mxGeometry x="130" y="700" width="95" height="80" as="geometry" />
        </mxCell>
        <mxCell id="cEZMXlOsg1kdJWBOgrgs-29" value="User" style="shape=umlActor;verticalLabelPosition=bottom;verticalAlign=top;html=1;outlineConnect=0;" vertex="1" parent="1">
          <mxGeometry x="37.5" y="205" width="40" height="80" as="geometry" />
        </mxCell>
        <mxCell id="cEZMXlOsg1kdJWBOgrgs-31" value="&lt;div&gt;&lt;font style=&quot;font-size: 10px;&quot;&gt;Σελίδα Activities&lt;/font&gt;&lt;/div&gt;&lt;div&gt;&lt;font style=&quot;font-size: 10px;&quot;&gt;UI&lt;/font&gt;&lt;/div&gt;" style="shape=umlBoundary;whiteSpace=wrap;html=1;rounded=1;" vertex="1" parent="1">
          <mxGeometry x="300" y="200" width="100" height="80" as="geometry" />
        </mxCell>
        <mxCell id="cEZMXlOsg1kdJWBOgrgs-32" value="" style="endArrow=classic;html=1;rounded=1;" edge="1" parent="1">
          <mxGeometry width="50" height="50" relative="1" as="geometry">
            <mxPoint x="420" y="239.50000000000003" as="sourcePoint" />
            <mxPoint x="550" y="220" as="targetPoint" />
          </mxGeometry>
        </mxCell>
        <mxCell id="cEZMXlOsg1kdJWBOgrgs-33" value="&lt;div&gt;&lt;span style=&quot;font-size: 10px;&quot;&gt;UI Λίστας Τροποποίησης στοιχείων&lt;/span&gt;&lt;/div&gt;" style="shape=umlBoundary;whiteSpace=wrap;html=1;rounded=1;" vertex="1" parent="1">
          <mxGeometry x="300" y="330" width="100" height="80" as="geometry" />
        </mxCell>
        <mxCell id="cEZMXlOsg1kdJWBOgrgs-34" value="" style="endArrow=classic;html=1;rounded=1;" edge="1" parent="1">
          <mxGeometry width="50" height="50" relative="1" as="geometry">
            <mxPoint x="90" y="280" as="sourcePoint" />
            <mxPoint x="270" y="360" as="targetPoint" />
          </mxGeometry>
        </mxCell>
        <mxCell id="cEZMXlOsg1kdJWBOgrgs-35" value="Επιλογή &quot;Edit Activity&quot;" style="text;html=1;align=center;verticalAlign=middle;whiteSpace=wrap;rounded=0;" vertex="1" parent="1">
          <mxGeometry x="130" y="200" width="130" height="30" as="geometry" />
        </mxCell>
        <mxCell id="cEZMXlOsg1kdJWBOgrgs-36" value="Τροποποίηση στοιχείων και επιλογή &quot;Save&quot;&lt;br&gt;/&lt;br&gt;Επιλογή &quot;Delete Activity&quot;" style="text;html=1;align=center;verticalAlign=middle;whiteSpace=wrap;rounded=0;rotation=25;" vertex="1" parent="1">
          <mxGeometry x="87.5" y="340" width="150" height="30" as="geometry" />
        </mxCell>
        <mxCell id="cEZMXlOsg1kdJWBOgrgs-38" value="&lt;font style=&quot;font-size: 10px;&quot;&gt;Ενημέρωση Activities Χρήστη&lt;/font&gt;" style="ellipse;shape=umlControl;whiteSpace=wrap;html=1;rounded=1;" vertex="1" parent="1">
          <mxGeometry x="540" y="595" width="70" height="80" as="geometry" />
        </mxCell>
        <mxCell id="cEZMXlOsg1kdJWBOgrgs-40" value="" style="endArrow=classic;html=1;rounded=1;" edge="1" parent="1">
          <mxGeometry width="50" height="50" relative="1" as="geometry">
            <mxPoint x="570" y="695" as="sourcePoint" />
            <mxPoint x="570" y="735" as="targetPoint" />
          </mxGeometry>
        </mxCell>
        <mxCell id="cEZMXlOsg1kdJWBOgrgs-41" value="Ορθό: Edit &amp;amp; Save" style="text;html=1;align=center;verticalAlign=middle;whiteSpace=wrap;rounded=0;rotation=0;" vertex="1" parent="1">
          <mxGeometry x="570" y="545" width="90" height="30" as="geometry" />
        </mxCell>
        <mxCell id="cEZMXlOsg1kdJWBOgrgs-42" value="" style="endArrow=classic;html=1;rounded=1;" edge="1" parent="1">
          <mxGeometry width="50" height="50" relative="1" as="geometry">
            <mxPoint x="358.08" y="420" as="sourcePoint" />
            <mxPoint x="358.08" y="520" as="targetPoint" />
          </mxGeometry>
        </mxCell>
        <mxCell id="cEZMXlOsg1kdJWBOgrgs-43" value="Delete" style="text;html=1;align=center;verticalAlign=middle;whiteSpace=wrap;rounded=0;rotation=0;" vertex="1" parent="1">
          <mxGeometry x="270" y="450" width="90" height="30" as="geometry" />
        </mxCell>
        <mxCell id="cEZMXlOsg1kdJWBOgrgs-44" value="&lt;font style=&quot;font-size: 10px;&quot;&gt;Ενημέρωση επιτυχούς τροποποίησης&lt;/font&gt;" style="shape=umlBoundary;whiteSpace=wrap;html=1;rounded=1;" vertex="1" parent="1">
          <mxGeometry x="133.75" y="540" width="100" height="80" as="geometry" />
        </mxCell>
        <mxCell id="cEZMXlOsg1kdJWBOgrgs-45" value="&lt;span style=&quot;font-size: 10px;&quot;&gt;Απαίτηση επιβεβαίωσης&lt;/span&gt;" style="ellipse;shape=umlControl;whiteSpace=wrap;html=1;rounded=1;" vertex="1" parent="1">
          <mxGeometry x="308.75" y="540" width="80" height="80" as="geometry" />
        </mxCell>
        <mxCell id="cEZMXlOsg1kdJWBOgrgs-47" value="" style="endArrow=classic;html=1;rounded=1;" edge="1" parent="1">
          <mxGeometry width="50" height="50" relative="1" as="geometry">
            <mxPoint x="298.75" y="580" as="sourcePoint" />
            <mxPoint x="248.75" y="580" as="targetPoint" />
          </mxGeometry>
        </mxCell>
        <mxCell id="cEZMXlOsg1kdJWBOgrgs-48" value="" style="endArrow=classic;html=1;rounded=0;curved=1;" edge="1" parent="1">
          <mxGeometry width="50" height="50" relative="1" as="geometry">
            <mxPoint x="47.5" y="330" as="sourcePoint" />
            <mxPoint x="120" y="580" as="targetPoint" />
            <Array as="points">
              <mxPoint x="30" y="460" />
              <mxPoint x="60" y="550" />
            </Array>
          </mxGeometry>
        </mxCell>
        <mxCell id="cEZMXlOsg1kdJWBOgrgs-49" value="Επιβεβαίωση" style="text;html=1;align=center;verticalAlign=middle;whiteSpace=wrap;rounded=0;rotation=30;" vertex="1" parent="1">
          <mxGeometry x="31" y="560" width="90" height="30" as="geometry" />
        </mxCell>
        <mxCell id="cEZMXlOsg1kdJWBOgrgs-50" value="" style="endArrow=classic;html=1;rounded=1;" edge="1" parent="1">
          <mxGeometry width="50" height="50" relative="1" as="geometry">
            <mxPoint x="283.75" y="739.58" as="sourcePoint" />
            <mxPoint x="233.75" y="739.58" as="targetPoint" />
          </mxGeometry>
        </mxCell>
        <mxCell id="cEZMXlOsg1kdJWBOgrgs-51" value="" style="endArrow=classic;html=1;rounded=1;" edge="1" parent="1" target="cEZMXlOsg1kdJWBOgrgs-23">
          <mxGeometry width="50" height="50" relative="1" as="geometry">
            <mxPoint x="208.75" y="630" as="sourcePoint" />
            <mxPoint x="328.75" y="690" as="targetPoint" />
          </mxGeometry>
        </mxCell>
        <mxCell id="cEZMXlOsg1kdJWBOgrgs-52" value="&lt;span style=&quot;font-size: 10px;&quot;&gt;Έλεγχος σφάλματος&lt;/span&gt;" style="ellipse;shape=umlControl;whiteSpace=wrap;html=1;rounded=1;" vertex="1" parent="1">
          <mxGeometry x="530" y="445" width="70" height="80" as="geometry" />
        </mxCell>
        <mxCell id="cEZMXlOsg1kdJWBOgrgs-55" value="" style="endArrow=classic;html=1;rounded=1;" edge="1" parent="1" target="cEZMXlOsg1kdJWBOgrgs-18">
          <mxGeometry width="50" height="50" relative="1" as="geometry">
            <mxPoint x="610" y="469.75" as="sourcePoint" />
            <mxPoint x="700" y="425" as="targetPoint" />
          </mxGeometry>
        </mxCell>
        <mxCell id="cEZMXlOsg1kdJWBOgrgs-57" value="" style="endArrow=classic;html=1;rounded=1;" edge="1" parent="1">
          <mxGeometry width="50" height="50" relative="1" as="geometry">
            <mxPoint x="630" y="350" as="sourcePoint" />
            <mxPoint x="420" y="370" as="targetPoint" />
          </mxGeometry>
        </mxCell>
        <mxCell id="cEZMXlOsg1kdJWBOgrgs-58" value="Σφάλμα" style="text;html=1;align=center;verticalAlign=middle;whiteSpace=wrap;rounded=0;" vertex="1" parent="1">
          <mxGeometry x="640" y="435" width="60" height="30" as="geometry" />
        </mxCell>
        <mxCell id="cEZMXlOsg1kdJWBOgrgs-59" value="" style="endArrow=classic;html=1;rounded=1;" edge="1" parent="1">
          <mxGeometry width="50" height="50" relative="1" as="geometry">
            <mxPoint x="570" y="535" as="sourcePoint" />
            <mxPoint x="570" y="585" as="targetPoint" />
          </mxGeometry>
        </mxCell>
        <mxCell id="cEZMXlOsg1kdJWBOgrgs-60" value="" style="endArrow=classic;html=1;rounded=0;curved=1;" edge="1" parent="1">
          <mxGeometry width="50" height="50" relative="1" as="geometry">
            <mxPoint x="400" y="415" as="sourcePoint" />
            <mxPoint x="510" y="480" as="targetPoint" />
            <Array as="points">
              <mxPoint x="420" y="450" />
            </Array>
          </mxGeometry>
        </mxCell>
        <mxCell id="cEZMXlOsg1kdJWBOgrgs-61" value="" style="endArrow=none;html=1;rounded=0;entryX=0;entryY=0.5;entryDx=0;entryDy=0;" edge="1" parent="1" target="cEZMXlOsg1kdJWBOgrgs-13">
          <mxGeometry width="50" height="50" relative="1" as="geometry">
            <mxPoint x="610" y="640" as="sourcePoint" />
            <mxPoint x="660" y="590" as="targetPoint" />
          </mxGeometry>
        </mxCell>
      </root>
    </mxGraphModel>
  </diagram>
</mxfile>
